PathFileType        4      (X/Y/Z)      C:\Users\pc\Desktop\IMUTRC\Sujet_02\Sujet_02_Tpose.trc         
DataRate	CameraRate	NumFrames	NumMarkers	Units	OrigDataRate	OrigDataStartFrame	OrigNumFrames
60.0	60.0	4	64	mm	60.0	1	155
Frame#	Time	pHipOrigin			pRightASI			pLeftASI			pRightCSI			pLeftCSI			pRightIschialTub			pLeftIschialTub			pSacrum			pL5SpinalProcess			pL3SpinalProcess			pT12SpinalProcess			pIJ			pT4SpinalProcess			pT8SpinalProcess			pPX			pC7SpinalProcess			pTopOfHead			pRightAuricularis			pLeftAuricularis			pBackOfHead			pRightAcromion			pLeftAcromion			pRightArmLatEpicondyle			pRightArmMedEpicondyle			pLeftArmLatEpicondyle			pLeftArmMedEpicondyle			pRightUlnarStyloid			pRightRadialStyloid			pRightOlecranon			pLeftUlnarStyloid			pLeftRadialStyloid			pLeftOlecranon			pRightTopOfHand			pRightPinky			pRightBallHand			pLeftTopOfHand			pLeftPinky			pLeftBallHand			pRightGreaterTrochanter			pRightKneeLatEpicondyle			pRightKneeMedEpicondyle			pRightPatella			pLeftGreaterTrochanter			pLeftKneeLatEpicondyle			pLeftKneeMedEpicondyle			pLeftPatella			pRightTibialTub			pRightLatMalleolus			pRightMedMalleolus			pLeftTibialTub			pLeftLatMalleolus			pLeftMedMalleolus			pRightHeelFoot			pRightFirstMetatarsal			pRightFifthMetatarsal			pRightPivotFoot			pRightHeelCenter			pRightToe			pLeftHeelFoot			pLeftFirstMetatarsal			pLeftFifthMetatarsal			pLeftPivotFoot			pLeftHeelCenter			pLeftToe			
		X1	Y1	Z1	X2	Y2	Z2	X3	Y3	Z3	X4	Y4	Z4	X5	Y5	Z5	X6	Y6	Z6	X7	Y7	Z7	X8	Y8	Z8	X9	Y9	Z9	X10	Y10	Z10	X11	Y11	Z11	X12	Y12	Z12	X13	Y13	Z13	X14	Y14	Z14	X15	Y15	Z15	X16	Y16	Z16	X17	Y17	Z17	X18	Y18	Z18	X19	Y19	Z19	X20	Y20	Z20	X21	Y21	Z21	X22	Y22	Z22	X23	Y23	Z23	X24	Y24	Z24	X25	Y25	Z25	X26	Y26	Z26	X27	Y27	Z27	X28	Y28	Z28	X29	Y29	Z29	X30	Y30	Z30	X31	Y31	Z31	X32	Y32	Z32	X33	Y33	Z33	X34	Y34	Z34	X35	Y35	Z35	X36	Y36	Z36	X37	Y37	Z37	X38	Y38	Z38	X39	Y39	Z39	X40	Y40	Z40	X41	Y41	Z41	X42	Y42	Z42	X43	Y43	Z43	X44	Y44	Z44	X45	Y45	Z45	X46	Y46	Z46	X47	Y47	Z47	X48	Y48	Z48	X49	Y49	Z49	X50	Y50	Z50	X51	Y51	Z51	X52	Y52	Z52	X53	Y53	Z53	X54	Y54	Z54	X55	Y55	Z55	X56	Y56	Z56	X57	Y57	Z57	X58	Y58	Z58	X59	Y59	Z59	X60	Y60	Z60	X61	Y61	Z61	X62	Y62	Z62	X63	Y63	Z63	X64	Y64	Z64	
1	0.0	-4419.56271	1102.9897600000004	-6467.93935	-4335.23134	1192.3902300000004	-6319.78343	-4364.95469	1226.2610200000004	-6605.26584	-4385.69191	1264.9705000000004	-6332.22576	-4410.11575	1292.6201300000005	-6566.32595	-4471.86659	1034.7873500000005	-6410.56637	-4484.07851	1048.6121600000004	-6527.61647	-4490.53009	1123.7269900000003	-6458.03157	-4452.74226	1221.6527500000004	-6451.57999	-4437.99579	1336.6291300000005	-6448.3542	-4433.61793	1442.6193700000003	-6448.3542	-4253.66493	1645.6137200000005	-6463.79191	-4411.72864	1640.7750400000004	-6457.10991	-4427.39677	1548.1487800000004	-6451.8104	-4270.0243	1518.1950200000006	-6456.64909	-4399.28631	1695.1526400000005	-6458.72281	-4341.91333	1914.2759500000004	-6492.36319	-4321.63694	1836.8569900000005	-6418.63085	-4351.82112	1818.4239000000005	-6543.28459	-4385.92232	1826.4883800000005	-6468.86101	-4390.06977	1684.5536200000004	-6254.57638	-4402.74251	1673.4937700000005	-6661.94758	-4396.98218	1557.1349100000004	-5987.52706	-4345.83036	1519.5775000000006	-6000.89104	-4346.06078	1524.1857700000005	-6915.86333	-4287.99656	1507.1351700000005	-6892.36115	-4311.26833	1482.2505000000006	-5718.63442	-4334.07927	1535.2456200000004	-5709.18746	-4363.11138	1514.5084000000004	-6005.96014	-4242.60508	1440.0848200000005	-7171.6224	-4278.5496	1483.6329800000005	-7187.29052	-4302.97344	1496.5361400000004	-6889.59619	-4321.40652	1509.4393000000002	-5526.4695	-4290.76152	1481.3288500000006	-5607.57508	-4300.20848	1502.9877200000005	-5680.84659	-4240.30095	1445.3843300000005	-7364.93938	-4213.57297	1431.3291000000004	-7279.22554	-4234.07978	1457.5962500000005	-7209.64064	-4409.42451	1058.5199500000006	-6293.28586	-4444.44737	612.4392700000003	-6324.16128	-4445.13861	611.7480300000003	-6410.79679	-4396.29093	611.7480300000003	-6370.93524	-4448.59482	1084.7870900000005	-6641.9016	-4476.24444	637.5543500000005	-6626.00306	-4456.19846	632.7156700000005	-6541.90211	-4418.41064	635.0198000000005	-6592.36268	-4383.8486	572.1169000000003	-6370.93524	-4453.20309	147.0038600000004	-6332.917	-4454.12474	146.54303000000039	-6401.34983	-4406.88996	594.4670100000004	-6597.66219	-4492.60381	172.8101800000004	-6638.44539	-4476.70527	168.6627300000004	-6571.85587	-4511.03689	34.562040000000394	-6393.28535	-4326.70604	10.13820000000039	-6396.05032	-4347.21284	0.6912400000003864	-6311.02771	-4312.65081	1.3824800000003887	-6349.50678	-4469.56245	26.72797000000039	-6384.29923	-4230.62358	1.1520700000003876	-6330.61286	-4556.19795	70.2761400000004	-6568.39967	-4385.4615	10.138200000000404	-6610.56535	-4426.2447	10.82944000000041	-6688.21473	-4384.53984	2.0737200000004075	-6659.41303	-4520.48385	55.06884000000041	-6587.29358	-4310.11626	1.15207000000041	-6698.58334	
2	0.017	-4419.56271	1102.5289400000004	-6467.93935	-4335.23134	1192.1598200000005	-6320.01384	-4364.95469	1225.5697800000005	-6605.49625	-4385.69191	1264.7400900000005	-6332.68659	-4410.11575	1292.1593100000005	-6566.55636	-4471.86659	1034.3265200000005	-6410.56637	-4484.07851	1048.1513300000004	-6527.61647	-4490.53009	1123.2661600000004	-6458.26198	-4452.74226	1221.1919300000004	-6451.8104	-4437.99579	1336.1683000000005	-6448.58461	-4433.61793	1442.1585400000004	-6448.58461	-4254.12576	1645.3833100000004	-6463.79191	-4412.18947	1640.3142100000005	-6457.10991	-4427.85759	1547.6879600000004	-6451.8104	-4270.25471	1517.9646100000004	-6456.64909	-4399.97755	1694.6918100000005	-6458.72281	-4342.14375	1914.0455300000006	-6492.13278	-4322.09776	1836.3961600000005	-6418.63085	-4352.28194	1818.1934900000006	-6543.05418	-4386.61356	1826.2579600000004	-6468.63059	-4390.30018	1684.3232000000005	-6254.57638	-4403.20334	1673.2633500000004	-6661.94758	-4396.98218	1556.9045000000006	-5987.29664	-4346.06078	1519.3470900000004	-6000.89104	-4346.29119	1524.1857700000005	-6915.86333	-4288.22697	1507.1351700000005	-6892.36115	-4311.26833	1482.0200900000004	-5718.63442	-4334.07927	1535.0152100000005	-5709.18746	-4363.34179	1514.2779900000005	-6005.96014	-4242.60508	1440.5456500000005	-7171.6224	-4278.78001	1483.8634000000004	-7187.52093	-4303.20385	1496.5361400000004	-6889.59619	-4321.40652	1508.9784800000002	-5526.4695	-4290.76152	1481.0984300000005	-5607.57508	-4300.20848	1502.7573100000004	-5680.84659	-4240.30095	1445.6147400000004	-7364.93938	-4213.57297	1431.7899300000004	-7279.22554	-4234.07978	1457.8266600000004	-7209.87105	-4409.42451	1058.0591200000003	-6293.28586	-4444.44737	612.2088600000003	-6324.3917	-4445.36903	611.5176200000003	-6411.0272	-4396.52135	611.5176200000003	-6370.93524	-4448.3644	1084.3262700000005	-6642.13201	-4476.24444	637.0935200000005	-6626.00306	-4456.19846	632.0244300000005	-6541.90211	-4418.41064	634.3285600000005	-6592.36268	-4383.8486	571.6560700000003	-6370.93524	-4453.4335	146.7734400000004	-6332.917	-4454.12474	146.3126200000004	-6401.34983	-4406.88996	593.7757700000004	-6597.66219	-4492.60381	172.1189400000004	-6638.44539	-4476.47486	167.9714900000004	-6571.85587	-4511.03689	34.10121000000039	-6393.28535	-4326.70604	9.907780000000391	-6396.05032	-4346.98243	0.46083000000038643	-6311.02771	-4312.65081	1.3824800000003887	-6349.27636	-4469.56245	26.26715000000039	-6384.06881	-4230.62358	1.1520700000003876	-6330.61286	-4556.19795	69.5849000000004	-6568.39967	-4385.4615	9.446960000000406	-6610.56535	-4426.2447	10.13820000000041	-6688.21473	-4384.53984	1.6128900000004076	-6659.41303	-4520.48385	54.377600000000406	-6587.29358	-4310.11626	1.15207000000041	-6698.58334	
3	0.033	-4419.56271	1102.0681100000004	-6468.16977	-4335.23134	1191.9294000000004	-6320.24425	-4364.95469	1224.8785400000004	-6605.72667	-4385.69191	1264.2792600000005	-6332.917	-4410.11575	1291.4680700000004	-6567.01719	-4471.86659	1034.0961100000004	-6410.56637	-4483.84809	1047.6905100000004	-6527.61647	-4490.53009	1122.8053300000004	-6458.26198	-4452.74226	1220.7311000000004	-6452.04082	-4437.99579	1335.7074700000005	-6448.81503	-4433.84835	1441.6977100000004	-6448.81503	-4254.58659	1645.1529000000005	-6463.79191	-4412.6503	1639.8533800000005	-6457.10991	-4428.08801	1547.2271300000004	-6452.04082	-4270.48512	1517.7341900000004	-6456.8795	-4400.43838	1694.2309900000005	-6458.4924	-4342.60457	1913.5847100000005	-6492.13278	-4322.78901	1835.9353300000005	-6418.40043	-4352.74277	1817.9630800000004	-6542.82376	-4387.07439	1825.7971400000004	-6468.63059	-4390.5306	1683.8623800000005	-6254.57638	-4403.43376	1673.2633500000004	-6661.71716	-4397.21259	1556.6740900000004	-5987.29664	-4346.29119	1519.1166700000006	-6000.89104	-4346.29119	1524.1857700000005	-6915.86333	-4288.45738	1507.1351700000005	-6892.36115	-4311.26833	1481.7896800000005	-5718.63442	-4334.30968	1534.7848000000004	-5709.18746	-4363.34179	1514.0475800000004	-6005.96014	-4242.60508	1440.7760600000004	-7171.6224	-4279.01043	1484.0938100000005	-7187.52093	-4303.20385	1496.5361400000004	-6889.59619	-4321.40652	1508.5176500000002	-5526.4695	-4290.76152	1480.6376100000004	-5607.57508	-4300.20848	1502.5269000000005	-5680.84659	-4240.30095	1446.0755700000004	-7365.1698	-4213.57297	1432.2507600000004	-7279.22554	-4234.31019	1458.2874900000004	-7209.87105	-4409.19409	1057.8287000000005	-6293.28586	-4444.67778	611.7480300000003	-6324.3917	-4445.36903	611.2872000000003	-6411.0272	-4396.52135	611.0567900000003	-6371.16565	-4448.3644	1083.6350200000004	-6642.13201	-4476.24444	636.4022800000005	-6626.23347	-4456.19846	631.3331800000004	-6542.13252	-4418.41064	633.8677300000005	-6592.59309	-4383.8486	571.4256600000003	-6371.16565	-4453.4335	146.54303000000039	-6332.917	-4454.35515	146.0822000000004	-6401.34983	-4406.88996	593.3149500000004	-6597.89261	-4492.37339	171.42770000000039	-6638.44539	-4476.47486	167.5106700000004	-6571.85587	-4511.03689	33.64038000000039	-6393.05494	-4326.70604	9.67737000000039	-6396.05032	-4346.98243	0.46083000000038643	-6311.02771	-4312.65081	1.1520700000003887	-6349.27636	-4469.56245	26.03673000000039	-6384.06881	-4230.62358	1.1520700000003876	-6330.38245	-4556.19795	69.1240700000004	-6568.39967	-4385.23108	8.755720000000405	-6610.33494	-4426.2447	9.446960000000411	-6688.21473	-4384.30943	0.9216500000004078	-6659.41303	-4520.48385	53.91678000000041	-6587.29358	-4309.88585	1.15207000000041	-6698.58334	
4	0.05	-4419.56271	1101.8377000000005	-6468.16977	-4335.23134	1191.6989900000005	-6320.24425	-4364.95469	1224.4177200000004	-6605.95708	-4385.69191	1264.2792600000005	-6333.14741	-4410.11575	1291.0072400000004	-6567.2476	-4471.86659	1033.6352800000004	-6410.56637	-4483.84809	1047.2296800000004	-6527.61647	-4490.53009	1122.5749200000005	-6458.4924	-4452.97267	1220.2702700000004	-6452.27123	-4438.2262	1335.2466400000005	-6449.04544	-4434.07876	1441.2368900000004	-6448.81503	-4255.04742	1644.9224800000004	-6463.79191	-4413.11113	1639.6229700000004	-6457.10991	-4428.31842	1546.9967200000006	-6452.04082	-4270.71554	1517.5037800000005	-6456.8795	-4400.89921	1694.0005700000004	-6458.4924	-4343.0654	1913.3542900000004	-6491.90236	-4323.01942	1835.7049200000004	-6418.17002	-4353.2036	1817.7326600000004	-6542.59335	-4387.53522	1825.5667200000005	-6468.40018	-4390.76101	1683.6319600000004	-6254.57638	-4403.66417	1673.0329400000005	-6661.71716	-4397.21259	1556.6740900000004	-5987.29664	-4346.29119	1518.8862600000004	-6000.66063	-4346.5216	1524.1857700000005	-6915.86333	-4288.6878	1507.3655800000004	-6892.36115	-4311.49874	1481.7896800000005	-5718.63442	-4334.30968	1534.7848000000004	-5708.95705	-4363.57221	1513.8171600000005	-6005.96014	-4242.8355	1441.2368900000004	-7171.85281	-4279.24084	1484.3242200000004	-7187.52093	-4303.43427	1496.5361400000004	-6889.8266	-4321.40652	1508.5176500000002	-5526.4695	-4290.99193	1480.6376100000004	-5607.57508	-4300.43889	1502.5269000000005	-5680.84659	-4240.53136	1446.3059900000005	-7365.1698	-4213.57297	1432.7115800000004	-7279.22554	-4234.31019	1458.5179000000005	-7209.87105	-4409.19409	1057.5982900000004	-6293.51628	-4444.67778	611.5176200000003	-6324.62211	-4445.59944	611.0567900000003	-6411.0272	-4396.52135	610.8263800000003	-6371.16565	-4448.3644	1083.1742000000004	-6642.13201	-4476.24444	635.9414600000005	-6626.23347	-4456.19846	630.8723600000004	-6542.13252	-4418.41064	633.4069100000005	-6592.59309	-4384.07902	571.1952400000004	-6371.16565	-4453.66391	146.3126200000004	-6333.14741	-4454.58557	145.62138000000039	-6401.34983	-4406.88996	592.8541200000004	-6597.89261	-4492.37339	170.9668700000004	-6638.44539	-4476.47486	167.0498400000004	-6571.85587	-4511.03689	33.40997000000039	-6393.05494	-4326.70604	9.67737000000039	-6395.8199	-4346.98243	0.23041000000038642	-6310.7973	-4312.65081	1.1520700000003887	-6349.27636	-4469.56245	25.80632000000039	-6384.06881	-4230.62358	1.1520700000003876	-6330.38245	-4556.19795	68.6632400000004	-6568.39967	-4385.23108	8.294890000000406	-6610.33494	-4426.01429	8.98613000000041	-6688.21473	-4384.30943	0.4608300000004078	-6659.18262	-4520.25344	53.455950000000406	-6587.29358	-4309.88585	1.15207000000041	-6698.58334	
